<?xml version="1.0" encoding="UTF-8" standalone="no"?><svg xmlns="http://www.w3.org/2000/svg" xmlns:xlink="http://www.w3.org/1999/xlink" contentScriptType="application/ecmascript" contentStyleType="text/css" height="259px" preserveAspectRatio="none" style="width:253px;height:259px;" version="1.1" viewBox="0 0 253 259" width="253px" zoomAndPan="magnify"><defs/><g><path d="M34,34.2969 L33.3502,34.2969 L33.1634,44.5493 L33.4228,54.8018 L33.2898,65.0543 L34.8362,75.3067 L34.0121,85.5592 L34.452,95.8117 L34.6375,106.0641 L34.2959,116.3166 L34.1819,126.5691 L33.9122,136.8215 L33.2592,147.074 L34.9446,157.3265 L33.3696,167.5789 L34.6245,177.8314 L33.7579,188.0839 L34.3459,198.3363 L33.1965,208.5888 L33.0643,218.8413 L34,229.0938 " fill="none" style="stroke: #383838; stroke-width: 1.0; stroke-dasharray: 5.0,5.0;"/><path d="M223.5,34.2969 L224.3676,34.2969 L222.639,44.5493 L223.1558,54.8018 L222.9304,65.0543 L224.2781,75.3067 L223.6642,85.5592 L223.3871,95.8117 L222.6992,106.0641 L222.6859,116.3166 L223.535,126.5691 L222.7405,136.8215 L222.5122,147.074 L222.6066,157.3265 L223.2816,167.5789 L223.5947,177.8314 L223.5335,188.0839 L222.9463,198.3363 L224.2048,208.5888 L223.325,218.8413 L223.5,229.0938 " fill="none" style="stroke: #383838; stroke-width: 1.0; stroke-dasharray: 5.0,5.0;"/><polygon fill="#F8F8F8" points="8,3,8,3.1133,18.6,3.5552,29.2,3.0221,39.8,2.7699,50.4,3.4225,61,3,60.8254,3,61.0843,9.0594,60.8104,15.1188,61.0999,21.1781,60.8274,27.2375,61,33.2969,61,32.6073,50.4,33.31,39.8,32.599,29.2,33.3548,18.6,33.1106,8,33.2969,8.0372,33.2969,8.0048,27.2375,8.2238,21.1781,8.1168,15.1187,7.8507,9.0594,8,3" style="stroke: #383838; stroke-width: 1.5;"/><text fill="#000000" font-family="sans-serif" font-size="14" lengthAdjust="spacingAndGlyphs" textLength="39" x="15" y="22.9951">Client</text><polygon fill="#F8F8F8" points="8,228.0938,8,227.7086,18.6,228.4267,29.2,228.7586,39.8,228.7908,50.4,227.8811,61,228.0938,60.9472,228.0938,61.11,234.1531,61.2223,240.2125,60.9694,246.2719,60.8608,252.3313,61,258.3906,61,258.2942,50.4,258.8339,39.8,258.1423,29.2,258.3082,18.6,258.4192,8,258.3906,7.9124,258.3906,8.065,252.3313,7.8232,246.2719,8.2027,240.2125,8.2451,234.1531,8,228.0938" style="stroke: #383838; stroke-width: 1.5;"/><text fill="#000000" font-family="sans-serif" font-size="14" lengthAdjust="spacingAndGlyphs" textLength="39" x="15" y="248.0889">Client</text><polygon fill="#F8F8F8" points="194.5,3,194.5,3.6242,204.1667,2.9287,213.8333,3.5515,223.5,2.3913,233.1667,3.388,242.8333,2.9282,252.5,3,252.7213,3,252.2776,9.0594,252.2557,15.1188,252.5092,21.1781,252.5079,27.2375,252.5,33.2969,252.5,33.9519,242.8333,33.7839,233.1667,33.7007,223.5,33.9711,213.8333,33.2286,204.1667,33.1209,194.5,33.2969,194.3356,33.2969,194.7136,27.2375,194.713,21.1781,194.2733,15.1187,194.3837,9.0594,194.5,3" style="stroke: #383838; stroke-width: 1.5;"/><text fill="#000000" font-family="sans-serif" font-size="14" lengthAdjust="spacingAndGlyphs" textLength="44" x="201.5" y="22.9951">Server</text><polygon fill="#F8F8F8" points="194.5,228.0938,194.5,228.7529,204.1667,227.4865,213.8333,227.6451,223.5,228.4229,233.1667,228.1987,242.8333,228.0232,252.5,228.0938,252.591,228.0938,252.6345,234.1531,252.4631,240.2125,252.5392,246.2719,252.362,252.3313,252.5,258.3906,252.5,258.1911,242.8333,257.9857,233.1667,257.8655,223.5,258.9559,213.8333,257.756,204.1667,258.7031,194.5,258.3906,194.5586,258.3906,194.6736,252.3313,194.7164,246.2719,194.5154,240.2125,194.295,234.1531,194.5,228.0938" style="stroke: #383838; stroke-width: 1.5;"/><text fill="#000000" font-family="sans-serif" font-size="14" lengthAdjust="spacingAndGlyphs" textLength="44" x="201.5" y="248.0889">Server</text><polygon fill="#383838" points="211.5,61.2969,211.5308,61.3739,213.4505,61.9732,215.5198,62.9465,217.5507,63.8237,219.4113,64.2751,221.5,65.2969,221.5491,65.4196,219.5172,66.1399,217.4604,66.7979,215.5921,67.927,213.4393,68.3451,211.5,69.2969,211.4888,69.2857,212.27,68.4668,213.2019,67.7988,213.7876,66.7845,214.7061,66.103,215.5,65.2969,215.4207,65.2175,214.6608,64.4577,214.0705,63.8674,213.2725,63.0694,212.3181,62.115,211.5,61.2969" style="stroke: #383838; stroke-width: 1.0;"/><path d="M34.5,65.2969 L34.5,66.1245 L44.6667,65.3979 L54.8333,64.552 L65,64.892 L75.1667,65.5479 L85.3333,65.7737 L95.5,64.6226 L105.6667,66.1745 L115.8333,66.0857 L126,65.9126 L136.1667,64.5961 L146.3333,65.0379 L156.5,65.4065 L166.6667,65.5617 L176.8333,65.1686 L187,65.5384 L197.1667,64.9013 L207.3333,64.4009 L217.5,65.2969 " fill="none" style="stroke: #383838; stroke-width: 1.0;"/><text fill="#000000" font-family="sans-serif" font-size="13" lengthAdjust="spacingAndGlyphs" textLength="72" x="41.5" y="60.3638">Hello Client</text><polygon fill="#383838" points="45.5,90.4297,45.55,90.5546,43.4572,91.1227,41.5778,92.2242,39.5648,92.9917,37.5623,93.7854,35.5,94.4297,35.5547,94.5665,37.4505,95.106,39.5031,96.0375,41.4526,96.7113,43.4436,97.4887,45.5,98.4297,45.6063,98.536,44.6694,97.5991,43.9606,96.8903,43.158,96.0877,42.2472,95.1769,41.5,94.4297,41.3343,94.264,42.1287,93.4584,43.1579,92.8875,43.7475,91.8772,44.8673,91.3969,45.5,90.4297" style="stroke: #383838; stroke-width: 1.0;"/><path d="M39.5,94.4297 L39.5,93.6244 L49.6667,94.7825 L59.8333,94.9578 L70,95.0332 L80.1667,94.3884 L90.3333,95.1773 L100.5,95.3215 L110.6667,93.8831 L120.8333,94.6171 L131,94.0267 L141.1667,94.9312 L151.3333,93.6395 L161.5,94.1994 L171.6667,94.6643 L181.8333,94.5607 L192,94.3638 L202.1667,93.7987 L212.3333,93.8937 L222.5,94.4297 " fill="none" style="stroke: #383838; stroke-width: 1.0; stroke-dasharray: 2.0,2.0;"/><text fill="#000000" font-family="sans-serif" font-size="13" lengthAdjust="spacingAndGlyphs" textLength="78" x="51.5" y="89.4966">Hello Server</text><polygon fill="#383838" points="45.5,119.5625,45.4174,119.356,43.4505,120.2387,41.5024,121.1685,39.4942,121.948,37.4332,122.5954,35.5,123.5625,35.491,123.5401,37.5825,124.5687,39.5413,125.2658,41.4571,125.8553,43.5526,126.8939,45.5,127.5625,45.3533,127.4158,44.8091,126.8716,43.7631,125.8256,43.1235,125.186,42.1596,124.2221,41.5,123.5625,41.4515,123.514,42.3122,122.7747,42.9663,121.8288,43.752,121.0145,44.858,120.5205,45.5,119.5625" style="stroke: #383838; stroke-width: 1.0;"/><path d="M39.5,123.5625 L39.5,123.3902 L49.6667,124.5569 L59.8333,124.1838 L70,123.6502 L80.1667,123.7035 L90.3333,123.822 L100.5,123.3643 L110.6667,123.3168 L120.8333,123.943 L131,123.3096 L141.1667,123.2943 L151.3333,123.4751 L161.5,124.088 L171.6667,122.6637 L181.8333,123.664 L192,124.4372 L202.1667,122.8289 L212.3333,122.7631 L222.5,123.5625 " fill="none" style="stroke: #383838; stroke-width: 1.0; stroke-dasharray: 2.0,2.0;"/><text fill="#000000" font-family="sans-serif" font-size="13" lengthAdjust="spacingAndGlyphs" textLength="133" x="51.5" y="118.6294">Public Key/Certificate</text><polygon fill="#383838" points="211.5,148.6953,211.4946,148.6819,213.4614,149.3989,215.5594,150.4437,217.4154,150.8838,219.4616,151.7993,221.5,152.6953,221.4824,152.6512,219.4576,153.3893,217.4705,154.2216,215.5593,155.2437,213.4171,155.6882,211.5,156.6953,211.4065,156.6018,212.3993,155.9946,213.0784,155.0737,214.0077,154.403,214.8255,153.6208,215.5,152.6953,215.454,152.6493,214.5503,151.7457,213.7641,150.9594,213.1209,150.3162,212.1813,149.3766,211.5,148.6953" style="stroke: #383838; stroke-width: 1.0;"/><path d="M34.5,152.6953 L34.5,153.1262 L44.6667,152.6045 L54.8333,153.0836 L65,153.1997 L75.1667,151.814 L85.3333,152.5949 L95.5,152.1229 L105.6667,151.7501 L115.8333,152.4949 L126,152.7539 L136.1667,151.8651 L146.3333,152.8488 L156.5,153.0477 L166.6667,152.0137 L176.8333,152.4251 L187,152.4715 L197.1667,151.9814 L207.3333,153.029 L217.5,152.6953 " fill="none" style="stroke: #383838; stroke-width: 1.0;"/><text fill="#000000" font-family="sans-serif" font-size="13" lengthAdjust="spacingAndGlyphs" textLength="165" x="41.5" y="147.7622">Encrypted Symmetric Key</text><polygon fill="#383838" points="211.5,177.8281,211.4407,177.6798,213.5363,178.7188,215.5808,179.6302,217.5421,180.3333,219.422,180.8332,221.5,181.8281,221.5194,181.8766,219.4396,182.4771,217.5737,183.6123,215.4887,184.1999,213.5355,185.1168,211.5,185.8281,211.3508,185.679,212.1688,184.8969,213.199,184.3271,213.7307,183.2588,214.8128,182.7409,215.5,181.8281,215.6473,181.9754,214.528,180.8561,213.7363,180.0645,213.1524,179.4806,212.3781,178.7062,211.5,177.8281" style="stroke: #383838; stroke-width: 1.0;"/><path d="M34.5,181.8281 L34.5,182.2748 L44.6667,181.7174 L54.8333,180.841 L65,181.8187 L75.1667,182.2406 L85.3333,182.1543 L95.5,180.9373 L105.6667,181.9053 L115.8333,180.8775 L126,181.9088 L136.1667,181.2561 L146.3333,181.8838 L156.5,182.5513 L166.6667,182.6082 L176.8333,182.6985 L187,181.6807 L197.1667,181.7274 L207.3333,182.8021 L217.5,181.8281 " fill="none" style="stroke: #383838; stroke-width: 1.0;"/><text fill="#000000" font-family="sans-serif" font-size="13" lengthAdjust="spacingAndGlyphs" textLength="76" x="41.5" y="176.895">Client Finish</text><polygon fill="#383838" points="45.5,206.9609,45.4108,206.7378,43.4114,207.5394,41.4653,208.4741,39.4914,209.3393,37.4784,210.107,35.5,210.9609,35.4331,210.7937,37.5898,211.9856,39.5896,212.7848,41.4444,213.2218,43.4157,213.9501,45.5,214.9609,45.4149,214.8758,44.5502,214.0111,44.0217,213.4826,43.0386,212.4995,42.4492,211.9101,41.5,210.9609,41.4778,210.9388,42.146,210.007,43.0649,209.3259,43.9677,208.6287,44.8084,207.8694,45.5,206.9609" style="stroke: #383838; stroke-width: 1.0;"/><path d="M39.5,210.9609 L39.5,210.4274 L49.6667,210.0329 L59.8333,211.9062 L70,211.8614 L80.1667,210.8458 L90.3333,211.1015 L100.5,211.4361 L110.6667,210.1371 L120.8333,211.1615 L131,210.2892 L141.1667,211.2128 L151.3333,210.7592 L161.5,211.0177 L171.6667,210.3593 L181.8333,210.0617 L192,210.5053 L202.1667,210.7247 L212.3333,211.9216 L222.5,210.9609 " fill="none" style="stroke: #383838; stroke-width: 1.0; stroke-dasharray: 2.0,2.0;"/><text fill="#000000" font-family="sans-serif" font-size="13" lengthAdjust="spacingAndGlyphs" textLength="82" x="51.5" y="206.0278">Server Finish</text></g></svg>